<?xml version="1.0" encoding="UTF-8"?>
<svg version="1.2" baseProfile="tiny" xmlns="http://www.w3.org/2000/svg" viewBox="0 0 1024 1024" width="1024" height="1024">
  <rect width="1024" height="1024" fill="#ffffff"/>
  <g fill="#f8fafa">
   <path d="M0 512 l0 -512 512 0 512 0 0 512 0 512 -512 0 -512 0 0 -512z m496 184.5 c1.7 -0.9 3 -1.8 3 -2.1 0 -0.2 -1 0 -2.1 0.7 -1.2 0.6 -4.5 0.9 -7.5 0.7 -5.9 -0.5 -6.6 -0.2 -3.1 1.2 3.3 1.3 6.5 1.2 9.7 -0.5z m-18.5 -14.1 c0 -6.8 -0.1 -7.3 -1.2 -4.7 -0.7 1.5 -1.2 3.5 -1.3 4.4 0 1.4 1.9 7.9 2.3 7.9 0.1 0 0.2 -3.4 0.2 -7.6z m28.4 0.6 c0 -1.4 -0.7 -3.8 -1.5 -5.5 -0.8 -1.6 -1.2 -2.2 -0.9 -1.2 0.3 1 0.5 4.2 0.5 7 0 3.7 0.3 4.8 1 3.7 0.5 -0.8 1 -2.6 0.9 -4z m-11.6 -15 l-2.3 -0.9 0 -47.8 c0 -31.3 -0.3 -47.4 -1 -46.7 -1.1 1.1 -1.8 23.8 -1.9 65.2 l-0.1 29.3 -2.2 0.9 c-1.8 0.7 -0.9 0.9 3.7 0.9 4.6 0 5.5 -0.2 3.8 -0.9z m-37.3 -41 c1.1 -0.7 0 -1 -3.7 -1 -2.8 0 -6 -0.3 -7 -0.6 -1 -0.3 -0.7 0.2 0.7 1 2.8 1.7 7.8 2 10 0.6z m-57.5 -85.5 l0 -77 3.6 -0.3 c4 -0.3 4.4 0 43.8 45.3 10.1 11.6 22.4 25.6 27.3 31.2 l8.9 10.2 10.2 -11.7 c5.7 -6.4 23.6 -27.2 39.9 -46.2 16.2 -19 32 -37.3 34.9 -40.7 5 -5.8 5.7 -6.3 9.7 -6.3 3.6 0 4.2 0.3 4.2 2.1 0 2.1 5.9 8.9 7.8 8.9 1.9 0 7.2 -5.2 7.2 -7 0 -3.4 -4.2 -7.1 -8.8 -7.7 -4 -0.5 -4.2 -0.7 -4.2 -3.9 0 -4.8 5.7 -10.4 10.6 -10.4 5 0 9.5 2.2 13.1 6.3 3.8 4.3 4.6 8.1 4.1 18 -0.3 6.3 -0.8 8 -3.2 11.1 -3.8 5 -7.9 7.4 -14.2 8.2 -4.6 0.5 -12.1 -0.4 -16.5 -2.1 -1.1 -0.4 -3.5 1.8 -8.2 7.5 l-6.8 8 32.5 0 32.4 0 0.6 -2.5 c0.4 -1.4 2.4 -4.3 4.5 -6.4 5.8 -5.8 14.9 -7.5 24.7 -4.6 8.8 2.6 13.4 9.7 13.4 20.7 -0.1 13.8 -8.1 21.8 -22 21.8 -9.6 0 -16.3 -3.7 -20.1 -11.2 l-2 -3.9 -38.1 0.3 -38 0.3 -3.5 4 c-1.9 2.2 -6.1 7.3 -9.4 11.3 l-6 7.2 22.8 0 22.8 -0.1 2.7 -4.5 c1.9 -3.1 4 -5 6.5 -6 2.1 -0.8 4.6 -1.9 5.5 -2.4 2.9 -1.7 12.9 -1.1 17.3 0.9 4.7 2.2 8.9 6.4 10.4 10.4 0.6 1.6 1.1 5.9 1.1 9.7 0 7.9 -1.1 11.4 -4.8 15.4 -3.9 4.1 -9.8 6.6 -16.2 6.6 -10.7 0 -17.3 -3.5 -20.6 -11 l-1.8 -4 -29.2 0 c-24.7 0 -29.3 0.2 -30.4 1.5 -1.1 1.3 1.4 1.5 21.3 1.5 l22.6 0 -0.2 39.3 -0.2 39.2 36.3 0.3 36.2 0.2 0 -39.5 0 -39.5 39 0 39 0 0 -39.5 0 -39.5 -39 0 -39 0 0.2 -9.7 c0.2 -5.4 0.2 -22.7 0.1 -38.5 l-0.3 -28.8 -36.7 0 -36.8 0 -3 3.8 c-4.7 5.9 -20.4 24 -41 47.2 -10.4 11.8 -21.6 24.5 -24.9 28.3 -5.3 6 -6.2 6.7 -9.5 6.6 -3.4 0 -4.4 -1 -19.3 -18.2 -12.7 -14.7 -40 -45.6 -56.9 -64.4 l-2.9 -3.3 -35 0 -35 0 0 116.8 c0 64.3 0.3 117.2 0.7 117.5 0.4 0.4 15.3 0.6 33.2 0.5 l32.6 -0.3 0 -77z"/>
  </g>
  <g fill="#36ada2">
   <path d="M330 409 l0 -28 38 0 37.9 0 3.4 3.8 c24 26.6 28.9 32.4 27.8 33.5 -0.6 0.6 -1.1 1.9 -1.1 3 0 1.6 -0.7 1.8 -4.2 1.5 -3.4 -0.2 -4.3 0.1 -4.6 1.5 -0.3 1.4 -1.5 1.7 -8.5 1.6 -6.3 -0.1 -8.3 0.3 -9.3 1.5 -0.6 0.9 -1.8 1.6 -2.7 1.6 -0.8 0 -1.7 0.4 -1.9 0.9 -0.1 0.4 -4.9 1.1 -10.6 1.5 l-10.3 0.7 -1.2 -3 c-0.9 -2.3 -1.8 -3.1 -3.7 -3.1 -1.4 0 -3.5 -0.3 -4.7 -0.6 -1.7 -0.5 -2.3 -0.2 -2.3 1 0 1.2 -1 1.6 -4 1.6 -2.9 0 -4 0.4 -4 1.5 0 1.1 -1.1 1.5 -3.6 1.5 -2.7 0 -3.7 -0.5 -4.1 -2 -0.6 -2.4 -1.6 -2.5 -3.3 -0.5 -0.7 0.8 -1.9 1.5 -2.6 1.5 -0.8 0 -1.4 0.5 -1.4 1 0 0.6 -1.6 1 -3.5 1 -1.9 0 -3.5 0.5 -3.5 1 0 0.6 -1.6 1 -3.5 1 -2.4 0 -3.5 0.5 -3.5 1.5 0 0.9 -0.9 1.5 -2.5 1.5 l-2.5 0 0 -28z"/>
   <path d="M511 397.6 l0 -22.3 -4.8 -3 c-13.4 -8.3 -11.7 -27.6 3 -33.8 10.3 -4.3 21.7 1.8 24.7 13.2 2.2 8.2 -2.1 17.3 -10 21.3 l-3.9 2 0 12.5 c0 11.8 -0.1 12.5 -2 12.5 -1.7 0 -2 -0.8 -2.3 -9.2 -0.1 -5.4 -0.4 -2.1 -0.5 8 -0.2 16.3 -0.9 21.2 -3.2 21.2 -0.6 0 -1 -8.7 -1 -22.4z m8.4 -32 c4.4 -1.8 6.6 -5.2 6.6 -9.9 0 -8.7 -10.5 -13 -16.9 -6.9 -7 6.5 -3.5 16.1 6.7 18.1 0.1 0.1 1.8 -0.5 3.6 -1.3z"/>
   <path d="M438.2 404.7 c-2.1 -2.2 -2.2 -3.1 -2.2 -24.4 l0 -22.1 -3 -1.2 c-6.8 -2.8 -11.6 -11.7 -10.7 -19.6 1.5 -13.5 16.1 -21 27.8 -14.2 13 7.6 12.6 25.9 -0.7 33 l-4.4 2.3 0 19.2 c0 18.4 -0.1 19.3 -1.9 19.3 -1.4 0 -2.1 -0.9 -2.4 -2.7 -0.3 -1.6 -0.2 0.7 0.1 5 0.2 4.2 0.3 7.7 0 7.7 -0.2 0 -1.4 -1 -2.6 -2.3z m7.1 -55.8 c3.6 -1.9 5.7 -5.2 5.7 -9.2 0 -4.9 -1.3 -7.3 -5 -9.2 -6.2 -3.2 -13.1 -0.3 -15.1 6.4 -1 3.4 -0.9 4.4 0.8 7.3 3 5.2 8.7 7.2 13.6 4.7z"/>
   <path d="M474 351.5 l0 -22.5 -3.9 -2 c-7.8 -3.9 -11.4 -12.1 -9.7 -21.5 0.8 -4 6 -10.5 8.4 -10.5 0.8 0 2.4 -0.8 3.5 -1.7 1.3 -1.3 3.5 -1.8 7.2 -1.7 8.9 0 15.8 6.2 17.9 16.1 1.6 7.3 -3.8 16.6 -11.4 19.7 l-4 1.6 0 21.2 0 21.3 -2.7 1.3 c-5.4 2.5 -5.3 3 -5.3 -21.3z m12.3 -34.6 c3.8 -4.1 3.8 -9.6 -0.2 -13.8 -8.3 -8.8 -22.6 2.3 -16.2 12.6 3.6 5.8 11.5 6.4 16.4 1.2z"/>
  </g>
  <g fill="#205789">
   <path d="M609.6 464.1 c-2.7 -1 -3.5 -4 -1.9 -7.1 1.7 -3.2 1.7 -11.2 -0.1 -15.3 -1.4 -3.4 -7.8 -9.7 -9.9 -9.7 -0.7 0 -1.8 -0.4 -2.6 -0.9 -1.5 -1 -0.6 -2.2 16.9 -22.2 4.1 -4.7 10.9 -12.5 15 -17.2 4.1 -4.8 8.1 -8.7 8.8 -8.7 0.9 0 1.2 2.4 1.2 8.8 0.1 4.8 0.2 21.6 0.3 37.4 l0.2 28.8 25.3 0 c24.5 0 25.2 0.1 25.2 2 0 1.9 -0.7 2 -19.1 2 -16.1 0 -19.3 0.2 -20.6 1.6 -2.1 2.1 -18.9 1.7 -20.2 -0.5 -0.8 -1.2 -1.7 -1.1 -5.9 0.3 -5.4 1.7 -9.5 1.9 -12.6 0.7z"/>
   <path d="M583 457.3 c-1.7 -1.6 -3.4 -4.2 -3.9 -6 -0.9 -2.9 -0.6 -3.6 3.2 -7.9 3.9 -4.4 4.3 -4.6 8.4 -4.1 5.1 0.5 7.1 2 9 6.6 4.3 10.1 -8.5 18.8 -16.7 11.4z"/>
  </g>
  <g fill="#1f4a84">
   <path d="M711 498 c0 -6 0 -6 -3 -6 -1.6 0 -3.3 -0.7 -3.8 -1.6 -0.5 -0.9 -2.2 -1.5 -4.3 -1.5 -1.9 0 -8.3 -0.5 -14.4 -1 -8.8 -0.9 -11.3 -1.4 -12.5 -3 -1 -1.3 -2.2 -1.7 -3.8 -1.2 -1.8 0.4 -3 -0.3 -5.8 -3.6 -6.9 -8 -19.5 -8.8 -26.7 -1.7 -4.2 4.1 -6.7 7.4 -6.7 8.6 0 0.6 -13.5 1 -37.7 1 l-37.6 0 2 -2.2 c1.1 -1.3 5.7 -6.7 10.2 -12 4.6 -5.4 8.7 -9.8 9.2 -9.8 0.4 0 2.7 1 4.9 2.1 5.1 2.7 13.2 2.9 17.8 0.5 1.7 -0.9 5 -3.9 7.2 -6.7 2.4 -3.1 4 -4.5 4.1 -3.5 0.1 2.9 2.5 5.2 5.3 5.2 1.3 0 2.7 0.4 3 0.8 1.6 2.2 14.4 1.2 14.4 -1.1 0 -0.5 0.6 -0.4 1.3 0.2 1.6 1.5 4.3 1.6 3.4 0.1 -0.6 -1 -0.4 -1 0.7 0 1 0.9 1 1.5 0.1 2.4 -1.6 1.6 -1.5 3.1 0.1 2.1 2.2 -0.8 4.9 0.5 4.1 2 -0.3 0.5 -0.1 1 0.4 1 0.6 0 1.1 -0.6 1.1 -1.2 0 -0.9 0.3 -0.8 0.9 0.2 0.6 0.8 0.7 1.8 0.5 2.2 -0.3 0.4 0.2 0.8 1 0.8 0.9 0 1.6 -0.4 1.6 -1 0 -0.5 0.8 -1 1.8 -1 1.3 0 1.4 0.2 0.3 0.9 -1.3 0.9 2.5 -0.1 11.3 -2.7 2.1 -0.6 3.6 -0.6 3.6 0 0 0.5 0.8 1 1.8 1 1.3 0 1.4 0.2 0.3 0.9 -0.7 0.5 -0.9 1.1 -0.4 1.4 0.5 0.3 2.8 -0.5 5 -1.8 3.2 -1.7 4 -1.9 3.6 -0.8 -0.5 1.3 -0.1 1.5 2.1 0.9 1.8 -0.4 2.5 -0.3 2.1 0.4 -0.3 0.5 -0.1 1 0.5 1 0.6 0 1.5 -0.8 2 -1.7 0.9 -1.6 1.2 -1.6 2.1 -0.3 0.8 1.3 2.6 1 3.6 -0.5 0.3 -0.5 1.1 -0.5 1.9 0.2 0.7 0.5 1.9 0.7 2.8 0.3 0.9 -0.3 1.6 0.1 1.6 1 0 0.9 0.3 1 1.5 0 1.3 -1.1 1.5 -0.7 1.5 2.4 l0 3.6 -39 0 -39 0 0 39.5 0 39.5 -39 0 c-31.9 0 -39.2 -0.2 -39.6 -1.4 -0.3 -0.7 -0.3 -18.5 -0.1 -39.5 l0.4 -38.1 -10.1 0 c-5.6 0 -15.1 -0.3 -21.2 -0.6 -10.1 -0.6 -11.1 -0.9 -10.7 -2.5 0.4 -1.5 0 -1.7 -2.3 -1.3 l-2.9 0.5 2.4 -2.5 c2.2 -2.3 3.2 -2.6 9.2 -2.6 3.7 0 7.1 0.5 7.4 1 0.3 0.6 0.1 1 -0.4 1 -1.6 0 -1.3 1.6 0.5 3.4 1 1.1 3.4 1.6 7.4 1.6 6 0 7 -0.7 7 -5.1 0 -1.8 0.9 -1.9 17.8 -1.9 l17.8 0 1.8 4 c4.1 9.2 14.8 13.3 24.1 9.1 7.6 -3.4 11 -8.9 11.7 -19.1 0.8 -11.6 0.8 -11.6 6 -11.6 2.7 0 5.6 0.3 6.3 0.6 0.7 0.3 2.4 0.1 3.8 -0.4 1.4 -0.5 2.7 -0.5 3 -0.1 0.3 0.4 1.2 0.4 1.9 0.2 0.8 -0.3 2 0.7 2.9 2.3 0.9 1.7 1.5 2.2 1.6 1.2 0.1 -2.3 4.6 -4.2 7 -2.9 1.5 0.8 1.9 0.6 2.3 -1.3 l0.4 -2.2 0.2 2.3 c0.1 1.9 0.5 2.2 2.1 1.7 1.3 -0.4 2 -0.2 2 0.7 0.1 0.8 0.6 0.6 1.5 -0.6 0.8 -1 1.2 -2.2 1 -2.6 -0.2 -0.4 0.5 -1.7 1.6 -2.9 1.1 -1.2 1.7 -2.5 1.4 -3 -0.3 -0.5 -0.1 -1.2 0.3 -1.5 1.2 -0.7 2.1 14.8 1.2 20.7 -0.4 2.6 -0.3 5 0.2 5.3 0.4 0.3 0.8 3.6 0.8 7.5 0 6.9 0 6.9 -2.7 6.8 -1.6 0 -3.9 -0.4 -5.1 -1z"/>
  </g>
  <g fill="#1e3976">
   <path d="M491.2 604.3 c0.3 -37 0.4 -39.8 2.1 -40.1 1.6 -0.3 1.7 2.1 1.7 39.7 0 39.5 0 40.1 -2 40.1 -2 0 -2 -0.5 -1.8 -39.7z"/>
   <path d="M644.1 500.6 c-2.9 -1.6 -5 -5.2 -5.1 -8.8 0 -3.5 4.3 -8.5 8 -9.3 3.8 -0.8 9.4 1.8 10.9 5.1 4.2 9.2 -5 17.9 -13.8 13z"/>
  </g>
  <g fill="#1e2a6c">
   <path d="M482.5 699.4 c-9.3 -4.8 -13.1 -15.2 -9.1 -24.7 1.3 -3.2 7.3 -8.7 10.9 -10 1.6 -0.6 1.7 -3.1 1.8 -32.9 0 -17.8 0.4 -34.3 0.8 -36.8 0.8 -4.1 1.6 -3.9 1.1 0.3 -0.2 1 0.4 2.6 1.2 3.5 0.9 1.1 1 1.4 0 0.8 -0.6 -0.4 -1.2 -0.2 -1.2 0.3 0 1 1.4 1.5 3.3 1.2 0.5 -0.1 0.7 0.9 0.5 2.1 -0.2 1.4 0.2 2.2 1 2.1 0.9 -0.2 1.2 2.7 1.2 12 0 6.7 0.3 20 0.7 29.5 l0.6 17.4 2.6 0.9 c9.1 3.5 14.2 16.5 9.8 25.4 -1.4 3 -5.9 7.5 -8.9 9.1 -3.6 1.9 -12.6 1.8 -16.3 -0.2z m13.3 -8.4 c1.8 -1.1 3.7 -3.1 4.3 -4.4 2.8 -6.2 -2.7 -14.6 -9.6 -14.6 -7.1 0 -12.4 8.3 -9.3 14.7 1.3 2.7 6.8 6.3 9.8 6.3 0.8 0 3 -0.9 4.8 -2z"/>
  </g>
</svg>
